<?xml version="1.0" encoding="UTF-8" standalone="no"?>
<!-- Created with Inkscape (http://www.inkscape.org/) -->

<svg
   xmlns:dc="http://purl.org/dc/elements/1.1/"
   xmlns:cc="http://creativecommons.org/ns#"
   xmlns:rdf="http://www.w3.org/1999/02/22-rdf-syntax-ns#"
   xmlns:svg="http://www.w3.org/2000/svg"
   xmlns="http://www.w3.org/2000/svg"
   xmlns:sodipodi="http://sodipodi.sourceforge.net/DTD/sodipodi-0.dtd"
   xmlns:inkscape="http://www.inkscape.org/namespaces/inkscape"
   width="1000"
   height="286.43427"
   id="svg3513"
   version="1.1"
   inkscape:version="0.48.5 r10040"
   sodipodi:docname="A.svg">
  <defs
     id="defs3515">
    <clipPath
       clipPathUnits="userSpaceOnUse"
       id="clipPath3361">
      <path
         inkscape:connector-curvature="0"
         d="m 0,0 595.276,0 0,841.89 L 0,841.89 0,0 z"
         id="path3363" />
    </clipPath>
    <clipPath
       clipPathUnits="userSpaceOnUse"
       id="clipPath3810">
      <path
         inkscape:connector-curvature="0"
         d="m 416.257,28.11 150.672,0 0,43.05 -150.672,0 0,-43.05 z"
         id="path3812" />
    </clipPath>
  </defs>
  <sodipodi:namedview
     id="base"
     pagecolor="#ffffff"
     bordercolor="#666666"
     borderopacity="1.0"
     inkscape:pageopacity="0.0"
     inkscape:pageshadow="2"
     inkscape:zoom="0.56669922"
     inkscape:cx="466.90889"
     inkscape:cy="65.423944"
     inkscape:document-units="px"
     inkscape:current-layer="layer1"
     showgrid="false"
     fit-margin-left="0.5"
     fit-margin-bottom="0.5"
     fit-margin-top="0.5"
     fit-margin-right="0.5"
     inkscape:window-width="1202"
     inkscape:window-height="1026"
     inkscape:window-x="710"
     inkscape:window-y="-8"
     inkscape:window-maximized="0" />
  <metadata
     id="metadata3518">
    <rdf:RDF>
      <cc:Work
         rdf:about="">
        <dc:format>image/svg+xml</dc:format>
        <dc:type
           rdf:resource="http://purl.org/dc/dcmitype/StillImage" />
        <dc:title></dc:title>
      </cc:Work>
    </rdf:RDF>
  </metadata>
  <g
     inkscape:label="Layer 1"
     inkscape:groupmode="layer"
     id="layer1"
     transform="translate(-430.835,-97.09526)">
    <path
       d="m 431.335,383.02951 999,0 0,-285.43425 -999,0 0,285.43425 z"
       style="fill:#ffffff;fill-opacity:1;fill-rule:nonzero;stroke:none"
       id="path3804"
       inkscape:connector-curvature="0" />
    <g
       id="g3806"
       transform="matrix(6.6302962,0,0,-6.6302962,-2328.5722,569.40703)">
      <g
         id="g3808"
         clip-path="url(#clipPath3810)">
        <g
           id="g3814"
           transform="translate(426.1323,41.1156)">
          <path
             d="m 0,0 c 1.274,-1.218 2.282,-2.179 4.465,-1.978 2.358,0.22 3.769,1.323 5.132,2.393 1.377,1.08 2.802,2.197 5.015,2.198 1.219,0 2.565,-0.666 3.987,-1.369 1.446,-0.714 2.939,-1.454 4.229,-1.454 0.702,0 1.928,0.702 3.009,1.322 1.264,0.723 2.571,1.471 3.714,1.586 2.104,0.21 3.265,-0.485 4.2,-1.044 0.627,-0.376 1.124,-0.672 1.85,-0.72 1.042,-0.065 1.712,0.208 2.638,0.586 1.068,0.438 2.364,0.968 4.61,1.132 l 0,1.948 C 42.188,4.335 41.369,4.089 40.373,4.132 39.178,4.184 38.533,4.514 38.012,4.779 37.546,5.019 37.209,5.191 36.434,5.191 35.647,5.191 34.97,4.867 34.252,4.525 33.429,4.132 32.579,3.724 31.529,3.78 30.977,3.809 30.327,4.011 29.574,4.244 28.673,4.521 27.653,4.838 26.803,4.838 26.201,4.838 25.529,4.477 24.753,4.058 23.55,3.412 22.052,2.606 20.133,2.908 19.177,3.055 18.358,3.5 17.561,3.93 16.625,4.438 15.654,4.964 14.341,5.107 12.39,5.319 10.72,4.88 8.95,4.414 7.18,3.949 5.349,3.47 3.02,3.513 1.083,3.55 -0.255,4.342 -1.671,5.18 -2.862,5.881 -4.163,6.65 -6.177,7.102 l 0,-4.406 C -5.984,2.7 -5.892,2.701 -5.799,2.701 -2.829,2.701 -1.327,1.266 0,0"
             style="fill:#0063a3;fill-opacity:1;fill-rule:nonzero;stroke:none"
             id="path3816"
             inkscape:connector-curvature="0" />
        </g>
        <g
           id="g3818"
           transform="translate(464.9748,41.1645)">
          <path
             d="m 0,0 c -0.994,-0.408 -1.934,-0.79 -3.345,-0.7 -1.111,0.07 -1.884,0.532 -2.565,0.94 -0.882,0.528 -1.644,0.984 -3.225,0.826 -0.802,-0.08 -1.958,-0.743 -3.077,-1.384 -1.376,-0.785 -2.676,-1.531 -3.803,-1.531 -1.662,0 -3.327,0.824 -4.936,1.618 -1.251,0.62 -2.434,1.203 -3.28,1.203 -1.662,0 -2.707,-0.818 -4.031,-1.856 -1.474,-1.156 -3.142,-2.463 -5.967,-2.725 -2.908,-0.271 -4.399,1.154 -5.715,2.411 -1.218,1.162 -2.366,2.261 -4.698,2.261 -0.094,0 -0.186,-0.005 -0.378,-0.009 l 0,-10.42 49.027,0 0,10.375 C 2.089,0.854 0.989,0.403 0,0"
             style="fill:#004676;fill-opacity:1;fill-rule:nonzero;stroke:none"
             id="path3820"
             inkscape:connector-curvature="0" />
        </g>
        <g
           id="g3822"
           transform="translate(425.0307,39.9669)">
          <path
             d="m 0,0 c 1.316,-1.257 2.807,-2.682 5.715,-2.411 2.825,0.261 4.493,1.569 5.968,2.725 1.323,1.037 2.368,1.856 4.03,1.856 0.846,0 2.029,-0.584 3.28,-1.203 1.61,-0.794 3.274,-1.619 4.937,-1.619 1.126,0 2.426,0.746 3.802,1.532 1.119,0.64 2.275,1.303 3.077,1.384 1.582,0.158 2.343,-0.298 3.225,-0.826 0.681,-0.408 1.454,-0.87 2.565,-0.94 1.411,-0.091 2.351,0.292 3.345,0.7 0.989,0.403 2.089,0.854 4.007,1.008 l 0,1.594 C 41.705,3.637 40.408,3.106 39.341,2.669 38.415,2.291 37.745,2.018 36.703,2.083 35.976,2.131 35.48,2.427 34.853,2.802 33.918,3.362 32.756,4.056 30.652,3.846 29.509,3.731 28.202,2.984 26.939,2.26 25.858,1.641 24.632,0.939 23.93,0.939 c -1.29,0 -2.784,0.74 -4.229,1.454 C 18.279,3.095 16.932,3.762 15.713,3.762 13.5,3.76 12.075,2.644 10.699,1.564 9.335,0.494 7.925,-0.609 5.567,-0.829 3.383,-1.031 2.375,-0.069 1.102,1.149 -0.225,2.415 -1.728,3.85 -4.698,3.85 -4.79,3.85 -4.882,3.849 -5.076,3.845 l 0,-1.593 C -4.884,2.256 -4.792,2.26 -4.698,2.26 -2.366,2.26 -1.218,1.161 0,0"
             style="fill:#ffffff;fill-opacity:1;fill-rule:nonzero;stroke:none"
             id="path3824"
             inkscape:connector-curvature="0" />
        </g>
        <g
           id="g3826"
           transform="translate(428.3524,64.0536)">
          <path
             d="m 0,0 c 3.592,0 5.238,-2.208 7.23,-5.293 5.464,-8.462 16.384,-7.682 33.405,-6.716 l 0,15.424 -49.027,0 0,-10.477 C -7.878,-6.324 -3.381,0 0,0"
             style="fill:#0096dc;fill-opacity:1;fill-rule:nonzero;stroke:none"
             id="path3828"
             inkscape:connector-curvature="0" />
        </g>
        <g
           id="g3830"
           transform="translate(435.5824,58.7605)">
          <path
             d="m 0,0 c -1.992,3.086 -3.638,5.293 -7.23,5.293 -3.381,0 -7.878,-6.324 -8.392,-7.062 l 0,-2.703 c 0.792,1.317 5.06,8.157 8.307,8.157 3.591,0 4.934,-2.55 6.825,-5.699 4.526,-7.539 16.739,-7.269 33.895,-6.301 l 0,1.599 C 16.384,-7.682 5.464,-8.462 0,0"
             style="fill:#ffffff;fill-opacity:1;fill-rule:nonzero;stroke:none"
             id="path3832"
             inkscape:connector-curvature="0" />
        </g>
        <g
           id="g3834"
           transform="translate(419.9589,49.9622)">
          <path
             d="m 0,0 c 2.385,-0.494 3.953,-1.421 5.282,-2.205 1.319,-0.781 2.361,-1.397 3.845,-1.423 2.087,-0.041 3.801,0.407 5.458,0.843 1.84,0.484 3.744,0.984 6.012,0.738 1.652,-0.18 2.824,-0.815 3.858,-1.374 0.863,-0.469 1.126,-0.713 2.012,-0.836 1.35,-0.19 2.41,0.361 3.535,0.967 0.9,0.482 1.83,0.982 2.868,0.982 1.111,0 2.264,-0.355 3.282,-0.669 0.615,-0.19 1.198,-0.373 1.534,-0.39 0.61,-0.03 1.201,0.252 1.887,0.58 0.819,0.391 1.748,0.834 2.925,0.834 1.191,0 1.814,-0.32 2.363,-0.601 0.466,-0.236 0.834,-0.423 1.65,-0.459 0.919,-0.041 1.626,0.276 2.304,0.582 0.034,0.014 0.064,0.031 0.212,0.042 l 0,2.872 C 31.872,-0.484 19.659,-0.754 15.134,6.784 13.242,9.934 11.9,12.483 8.309,12.483 5.062,12.483 0.793,5.643 0.001,4.327 L 0,0 z"
             style="fill:#65b32e;fill-opacity:1;fill-rule:nonzero;stroke:none"
             id="path3836"
             inkscape:connector-curvature="0" />
        </g>
        <g
           id="g3838"
           transform="translate(419.9601,49.4823)">
          <path
             d="m 0,0 -0.001,0.48 c 2.385,-0.494 3.953,-1.421 5.282,-2.206 1.319,-0.78 2.361,-1.397 3.845,-1.423 2.087,-0.04 3.801,0.408 5.458,0.844 1.84,0.484 3.744,0.984 6.012,0.737 1.652,-0.179 2.836,-0.795 3.858,-1.373 0.935,-0.53 1.187,-0.724 2.012,-0.836 1.352,-0.187 2.41,0.361 3.535,0.967 0.9,0.482 1.83,0.982 2.868,0.982 1.111,0 2.264,-0.355 3.282,-0.669 0.615,-0.19 1.198,-0.373 1.534,-0.39 0.61,-0.03 1.201,0.252 1.887,0.579 0.819,0.392 1.748,0.835 2.925,0.835 1.191,0 1.814,-0.32 2.363,-0.601 0.466,-0.236 0.834,-0.423 1.65,-0.459 0.919,-0.041 1.626,0.276 2.304,0.582 0.033,0.014 0.064,0.03 0.211,0.042 l 0,-0.419 0,-0.485 -0.003,-0.362 0,-0.592 c -0.662,-0.265 -1.481,-0.511 -2.477,-0.468 -1.195,0.053 -1.84,0.383 -2.36,0.647 -0.467,0.24 -0.804,0.413 -1.579,0.413 -0.787,0 -1.464,-0.324 -2.182,-0.667 -0.823,-0.393 -1.673,-0.801 -2.723,-0.744 -0.551,0.028 -1.202,0.23 -1.955,0.463 -0.9,0.277 -1.921,0.594 -2.771,0.594 -0.602,0 -1.274,-0.361 -2.05,-0.779 -1.203,-0.647 -2.7,-1.453 -4.62,-1.151 -0.955,0.147 -1.775,0.592 -2.572,1.022 -0.936,0.508 -1.907,1.034 -3.22,1.177 -1.951,0.212 -3.621,-0.227 -5.39,-0.692 -1.771,-0.466 -3.602,-0.945 -5.931,-0.902 -1.937,0.038 -3.275,0.829 -4.691,1.667 -1.191,0.701 -2.492,1.47 -4.506,1.922 l 0,0.701 L 0,0 z"
             style="fill:#ffffff;fill-opacity:1;fill-rule:nonzero;stroke:none"
             id="path3840"
             inkscape:connector-curvature="0" />
        </g>
        <path
           d="m 468.988,52.044 -0.002,0 0,-1.599 0.002,0 0,1.599 z"
           style="fill:#ffffff;fill-opacity:1;fill-rule:nonzero;stroke:none"
           id="path3842"
           inkscape:connector-curvature="0" />
        <g
           id="g3844"
           transform="translate(435.5824,58.7605)">
          <path
             d="m 0,0 c -1.992,3.086 -3.638,5.293 -7.23,5.293 -3.381,0 -7.878,-6.324 -8.392,-7.062 l 0,-2.703 c 0.792,1.317 5.06,8.157 8.307,8.157 3.591,0 4.934,-2.55 6.825,-5.699 4.526,-7.539 16.738,-7.269 33.893,-6.301 l 0,1.599 C 16.383,-7.682 5.464,-8.462 0,0"
             style="fill:#ffffff;fill-opacity:1;fill-rule:nonzero;stroke:none"
             id="path3846"
             inkscape:connector-curvature="0" />
        </g>
        <g
           id="g3848"
           transform="translate(454.5013,60.994)">
          <path
             d="m 0,0 c 0.278,0.017 0.812,-0.068 1.205,-0.388 0.249,-0.204 0.391,-0.466 0.42,-0.78 0.088,-0.944 -0.305,-1.527 -1.167,-1.734 -1.016,-0.244 -1.723,0.1 -2.1,1.023 -0.121,0.296 -0.093,0.598 0.083,0.901 0.275,0.474 0.89,0.873 1.46,0.95 C -0.063,-0.024 -0.03,-0.014 0,0 m -1.142,0.993 0.019,0.005 C -1.252,0.966 -1.38,0.919 -1.506,0.853 c -1.57,-0.802 -1.999,-2.252 -1.609,-3.208 0.75,-1.836 2.594,-2.272 3.603,-1.988 1.032,0.29 1.825,0.883 2.232,1.671 0.358,0.692 0.392,1.494 0.098,2.315 -0.362,1.009 -1.939,2.04 -3.96,1.35"
             style="fill:#fbba07;fill-opacity:1;fill-rule:nonzero;stroke:none"
             id="path3850"
             inkscape:connector-curvature="0" />
        </g>
        <g
           id="g3852"
           transform="translate(457.5517,65.4581)">
          <path
             d="m 0,0 c -0.255,0.178 -0.589,0.113 -0.627,0.105 -0.529,-0.113 -0.995,-1.56 -1.138,-2.243 -0.041,-0.202 0.066,-0.391 0.28,-0.493 0.236,-0.114 0.575,-0.116 0.733,0.076 0.636,0.771 1.053,1.674 0.991,2.149 C 0.215,-0.234 0.132,-0.093 0,0"
             style="fill:#fbba07;fill-opacity:1;fill-rule:nonzero;stroke:none"
             id="path3854"
             inkscape:connector-curvature="0" />
        </g>
        <g
           id="g3856"
           transform="translate(453.055,62.9509)">
          <path
             d="M 0,0 C 0.235,0.09 0.457,0.308 0.427,0.55 0.304,1.523 -0.07,2.441 -0.465,2.733 -0.612,2.84 -0.778,2.882 -0.943,2.852 -1.245,2.797 -1.427,2.532 -1.447,2.502 -1.765,2.023 -0.912,0.598 -0.588,0.138 -0.463,-0.039 -0.238,-0.092 0,0"
             style="fill:#fbba07;fill-opacity:1;fill-rule:nonzero;stroke:none"
             id="path3858"
             inkscape:connector-curvature="0" />
        </g>
        <g
           id="g3860"
           transform="translate(450.088,58.524)">
          <path
             d="m 0,0 c -1.018,-0.116 -1.977,-0.472 -2.283,-0.845 -0.144,-0.178 -0.15,-0.35 -0.131,-0.462 0.053,-0.301 0.338,-0.48 0.371,-0.5 0.456,-0.274 1.851,0.432 2.456,0.817 0.179,0.114 0.241,0.324 0.161,0.547 C 0.489,-0.203 0.251,0.03 0,0"
             style="fill:#fbba07;fill-opacity:1;fill-rule:nonzero;stroke:none"
             id="path3862"
             inkscape:connector-curvature="0" />
        </g>
        <g
           id="g3864"
           transform="translate(455.7482,55.8285)">
          <path
             d="m 0,0 c -0.235,-0.091 -0.457,-0.309 -0.427,-0.55 0.123,-0.973 0.497,-1.892 0.893,-2.183 0.145,-0.108 0.31,-0.149 0.475,-0.12 0.23,0.042 0.415,0.214 0.505,0.35 C 1.765,-2.024 0.912,-0.6 0.588,-0.138 0.463,0.038 0.238,0.092 0,0"
             style="fill:#fbba07;fill-opacity:1;fill-rule:nonzero;stroke:none"
             id="path3866"
             inkscape:connector-curvature="0" />
        </g>
        <g
           id="g3868"
           transform="translate(458.5246,58.0805)">
          <path
             d="m 0,0 c -0.218,0.042 -0.416,-0.076 -0.519,-0.307 -0.098,-0.22 -0.095,-0.534 0.102,-0.682 0.806,-0.602 1.747,-0.997 2.238,-0.939 0.236,0.029 0.366,0.15 0.433,0.248 0.13,0.186 0.134,0.437 0.097,0.594 C 2.22,-0.536 0.569,-0.107 0,0"
             style="fill:#fbba07;fill-opacity:1;fill-rule:nonzero;stroke:none"
             id="path3870"
             inkscape:connector-curvature="0" />
        </g>
        <g
           id="g3872"
           transform="translate(450.8199,61.7934)">
          <path
             d="M 0,0 C -0.791,0.619 -1.722,1.036 -2.215,0.989 -2.452,0.964 -2.585,0.845 -2.655,0.749 -2.79,0.564 -2.797,0.314 -2.764,0.159 c 0.117,-0.553 1.758,-1.018 2.325,-1.138 0.217,-0.047 0.419,0.067 0.527,0.296 C 0.19,-0.464 0.194,-0.151 0,0"
             style="fill:#fbba07;fill-opacity:1;fill-rule:nonzero;stroke:none"
             id="path3874"
             inkscape:connector-curvature="0" />
        </g>
        <g
           id="g3876"
           transform="translate(452.722,56.0153)">
          <path
             d="m 0,0 c -0.234,0.119 -0.572,0.129 -0.734,-0.06 -0.654,-0.756 -1.093,-1.65 -1.043,-2.127 0.02,-0.173 0.1,-0.315 0.231,-0.411 0.25,-0.184 0.585,-0.126 0.623,-0.119 0.532,0.102 1.032,1.538 1.19,2.217 C 0.315,-0.3 0.212,-0.108 0,0"
             style="fill:#fbba07;fill-opacity:1;fill-rule:nonzero;stroke:none"
             id="path3878"
             inkscape:connector-curvature="0" />
        </g>
        <g
           id="g3880"
           transform="translate(461.2478,61.4397)">
          <path
             d="m 0,0 c -0.046,0.301 -0.327,0.488 -0.359,0.508 -0.449,0.283 -1.861,-0.391 -2.475,-0.763 -0.181,-0.11 -0.248,-0.317 -0.174,-0.542 0.079,-0.243 0.313,-0.48 0.564,-0.458 1.021,0.095 1.989,0.43 2.302,0.796 C 0.007,-0.284 0.018,-0.113 0,0"
             style="fill:#fbba07;fill-opacity:1;fill-rule:nonzero;stroke:none"
             id="path3882"
             inkscape:connector-curvature="0" />
        </g>
        <path
           d="m 417.017,28.869 149.153,0 0,41.531 -149.153,0 0,-41.531 z m 149.912,-0.759 -150.672,0 0,43.049 150.672,0 0,-43.049 z"
           style="fill:#004676;fill-opacity:1;fill-rule:nonzero;stroke:none"
           id="path3884"
           inkscape:connector-curvature="0" />
        <g
           id="g3886"
           transform="translate(477.2577,56.6181)">
          <path
             d="m 0,0 c 0.574,0 0.92,0.203 0.92,0.641 l 0,0.017 c 0,0.397 -0.296,0.641 -0.962,0.641 l -1.502,0 L -1.544,0 0,0 z m -0.346,2.379 c 0.574,0 0.937,0.186 0.937,0.625 l 0,0.017 c 0,0.388 -0.304,0.607 -0.852,0.607 l -1.283,0 0,-1.249 1.198,0 z m -2.463,2.388 2.742,0 C 0.608,4.767 1.139,4.582 1.476,4.244 1.747,3.974 1.882,3.645 1.882,3.24 l 0,-0.017 C 1.882,2.557 1.527,2.185 1.105,1.949 1.789,1.687 2.211,1.291 2.211,0.498 l 0,-0.017 c 0,-1.08 -0.877,-1.62 -2.211,-1.62 l -2.809,0 0,5.906 z"
             style="fill:#004676;fill-opacity:1;fill-rule:nonzero;stroke:none"
             id="path3888"
             inkscape:connector-curvature="0" />
        </g>
        <g
           id="g3890"
           transform="translate(483.7249,57.951)">
          <path
             d="M 0,0 -0.785,1.915 -1.57,0 0,0 z m -1.367,3.476 1.198,0 2.531,-5.948 -1.358,0 -0.54,1.325 -2.498,0 -0.54,-1.325 -1.324,0 2.531,5.948 z"
             style="fill:#004676;fill-opacity:1;fill-rule:nonzero;stroke:none"
             id="path3892"
             inkscape:connector-curvature="0" />
        </g>
        <g
           id="g3894"
           transform="translate(487.525,57.8081)">
          <path
             d="m 0,0 -2.27,3.577 1.519,0 1.409,-2.371 1.435,2.371 1.476,0 -2.27,-3.552 0,-2.354 L 0,-2.329 0,0 z"
             style="fill:#004676;fill-opacity:1;fill-rule:nonzero;stroke:none"
             id="path3896"
             inkscape:connector-curvature="0" />
        </g>
        <g
           id="g3898"
           transform="translate(498.6753,58.4154)">
          <path
             d="m 0,0 0,0.016 c 0,1.013 -0.743,1.857 -1.789,1.857 -1.046,0 -1.772,-0.827 -1.772,-1.839 l 0,-0.018 c 0,-1.012 0.742,-1.855 1.789,-1.855 C -0.726,-1.839 0,-1.013 0,0 m -4.92,0 0,0.016 c 0,1.68 1.325,3.055 3.148,3.055 1.823,0 3.13,-1.358 3.13,-3.037 l 0,-0.018 c 0,-1.679 -1.325,-3.053 -3.147,-3.053 -1.822,0 -3.131,1.358 -3.131,3.037"
             style="fill:#004676;fill-opacity:1;fill-rule:nonzero;stroke:none"
             id="path3900"
             inkscape:connector-curvature="0" />
        </g>
        <g
           id="g3902"
           transform="translate(500.9821,61.3855)">
          <path
             d="m 0,0 4.497,0 0,-1.181 -3.198,0 0,-1.257 2.819,0 0,-1.182 -2.819,0 0,-2.287 L 0,-5.907 0,0 z"
             style="fill:#004676;fill-opacity:1;fill-rule:nonzero;stroke:none"
             id="path3904"
             inkscape:connector-curvature="0" />
        </g>
        <g
           id="g3906"
           transform="translate(510.9605,58.4072)">
          <path
             d="m 0,0 c 0.65,0 1.03,0.388 1.03,0.894 l 0,0.017 c 0,0.582 -0.406,0.895 -1.056,0.895 l -1.003,0 L -1.029,0 0,0 z m -2.328,2.978 2.412,0 c 1.41,0 2.262,-0.835 2.262,-2.042 l 0,-0.017 c 0,-1.366 -1.064,-2.075 -2.388,-2.075 l -0.987,0 0,-1.772 -1.299,0 0,5.906 z"
             style="fill:#004676;fill-opacity:1;fill-rule:nonzero;stroke:none"
             id="path3908"
             inkscape:connector-curvature="0" />
        </g>
        <g
           id="g3910"
           transform="translate(514.0601,61.3855)">
          <path
             d="m 0,0 1.299,0 0,-4.726 2.945,0 0,-1.181 L 0,-5.907 0,0 z"
             style="fill:#004676;fill-opacity:1;fill-rule:nonzero;stroke:none"
             id="path3912"
             inkscape:connector-curvature="0" />
        </g>
        <g
           id="g3914"
           transform="translate(519.0747,61.3855)">
          <path
             d="m 0,0 4.455,0 0,-1.156 -3.164,0 0,-1.199 2.784,0 0,-1.155 -2.784,0 0,-1.24 3.206,0 0,-1.157 L 0,-5.907 0,0 z"
             style="fill:#004676;fill-opacity:1;fill-rule:nonzero;stroke:none"
             id="path3916"
             inkscape:connector-curvature="0" />
        </g>
        <g
           id="g3918"
           transform="translate(524.5198,61.3855)">
          <path
             d="m 0,0 1.198,0 2.767,-3.637 0,3.637 1.283,0 0,-5.907 -1.105,0 -2.861,3.755 0,-3.755 L 0,-5.907 0,0 z"
             style="fill:#004676;fill-opacity:1;fill-rule:nonzero;stroke:none"
             id="path3920"
             inkscape:connector-curvature="0" />
        </g>
        <g
           id="g3922"
           transform="translate(532.3531,60.1873)">
          <path
             d="m 0,0 -1.797,0 0,1.198 4.894,0 L 3.097,0 1.3,0 1.3,-4.708 0,-4.708 0,0 z"
             style="fill:#004676;fill-opacity:1;fill-rule:nonzero;stroke:none"
             id="path3924"
             inkscape:connector-curvature="0" />
        </g>
        <g
           id="g3926"
           transform="translate(537.9,57.8081)">
          <path
             d="m 0,0 -2.27,3.577 1.519,0 1.409,-2.371 1.435,2.371 1.476,0 -2.27,-3.552 0,-2.354 L 0,-2.329 0,0 z"
             style="fill:#004676;fill-opacity:1;fill-rule:nonzero;stroke:none"
             id="path3928"
             inkscape:connector-curvature="0" />
        </g>
        <g
           id="g3930"
           transform="translate(477.076,49.7245)">
          <path
             d="M 0,0 C 0.636,0 1,0.339 1,0.839 L 1,0.857 C 1,1.416 0.61,1.704 -0.026,1.704 l -1.296,0 L -1.322,0 0,0 z m -2.628,2.882 2.713,0 C 0.839,2.882 1.424,2.671 1.814,2.281 2.145,1.95 2.323,1.483 2.323,0.924 l 0,-0.017 c 0,-0.957 -0.517,-1.559 -1.272,-1.839 l 1.45,-2.119 -1.526,0 -1.272,1.898 -0.017,0 -1.008,0 0,-1.898 -1.306,0 0,5.933 z"
             style="fill:#0063a3;fill-opacity:1;fill-rule:nonzero;stroke:none"
             id="path3932"
             inkscape:connector-curvature="0" />
        </g>
        <g
           id="g3934"
           transform="translate(480.3684,52.6069)">
          <path
             d="m 0,0 4.475,0 0,-1.162 -3.178,0 0,-1.203 2.797,0 0,-1.161 -2.797,0 0,-1.246 3.221,0 0,-1.162 L 0,-5.934 0,0 z"
             style="fill:#0063a3;fill-opacity:1;fill-rule:nonzero;stroke:none"
             id="path3936"
             inkscape:connector-curvature="0" />
        </g>
        <g
           id="g3938"
           transform="translate(485.5761,49.623)">
          <path
             d="m 0,0 0,0.017 c 0,1.686 1.314,3.068 3.111,3.068 1.068,0 1.712,-0.288 2.331,-0.813 L 4.62,1.28 C 4.162,1.661 3.755,1.882 3.069,1.882 2.119,1.882 1.365,1.042 1.365,0.034 l 0,-0.017 c 0,-1.085 0.746,-1.882 1.797,-1.882 0.475,0 0.899,0.119 1.229,0.356 l 0,0.848 -1.314,0 0,1.127 2.577,0 0,-2.577 C 5.043,-2.628 4.204,-3.051 3.119,-3.051 1.271,-3.051 0,-1.755 0,0"
             style="fill:#0063a3;fill-opacity:1;fill-rule:nonzero;stroke:none"
             id="path3940"
             inkscape:connector-curvature="0" />
        </g>
        <path
           d="m 492.336,52.607 1.305,0 0,-5.934 -1.305,0 0,5.934 z"
           style="fill:#0063a3;fill-opacity:1;fill-rule:nonzero;stroke:none"
           id="path3942"
           inkscape:connector-curvature="0" />
        <g
           id="g3944"
           transform="translate(499.5933,49.623)">
          <path
             d="m 0,0 0,0.017 c 0,1.017 -0.746,1.865 -1.797,1.865 -1.052,0 -1.78,-0.831 -1.78,-1.848 l 0,-0.017 C -3.577,-1 -2.832,-1.848 -1.78,-1.848 -0.729,-1.848 0,-1.017 0,0 m -4.942,0 0,0.017 c 0,1.686 1.331,3.068 3.162,3.068 1.831,0 3.145,-1.364 3.145,-3.051 l 0,-0.017 c 0,-1.687 -1.332,-3.068 -3.162,-3.068 -1.831,0 -3.145,1.364 -3.145,3.051"
             style="fill:#0063a3;fill-opacity:1;fill-rule:nonzero;stroke:none"
             id="path3946"
             inkscape:connector-curvature="0" />
        </g>
        <g
           id="g3948"
           transform="translate(501.9116,52.6069)">
          <path
             d="m 0,0 1.204,0 2.78,-3.653 0,3.653 1.289,0 0,-5.934 -1.111,0 -2.874,3.772 0,-3.772 L 0,-5.934 0,0 z"
             style="fill:#0063a3;fill-opacity:1;fill-rule:nonzero;stroke:none"
             id="path3950"
             inkscape:connector-curvature="0" />
        </g>
        <g
           id="g3952"
           transform="translate(511.8071,49.1564)">
          <path
             d="M 0,0 -0.788,1.924 -1.577,0 0,0 z m -1.374,3.493 1.205,0 2.542,-5.976 -1.365,0 -0.542,1.33 -2.509,0 -0.542,-1.33 -1.331,0 2.542,5.976 z"
             style="fill:#0063a3;fill-opacity:1;fill-rule:nonzero;stroke:none"
             id="path3954"
             inkscape:connector-curvature="0" />
        </g>
        <g
           id="g3956"
           transform="translate(514.8878,52.6069)">
          <path
             d="m 0,0 1.305,0 0,-4.747 2.959,0 0,-1.187 L 0,-5.934 0,0 z"
             style="fill:#0063a3;fill-opacity:1;fill-rule:nonzero;stroke:none"
             id="path3958"
             inkscape:connector-curvature="0" />
        </g>
        <g
           id="g3960"
           transform="translate(521.9943,49.623)">
          <path
             d="m 0,0 0,0.017 c 0,1.686 1.271,3.068 3.094,3.068 1.12,0 1.789,-0.372 2.34,-0.915 L 4.603,1.212 c -0.458,0.416 -0.924,0.67 -1.518,0.67 -1,0 -1.72,-0.831 -1.72,-1.848 l 0,-0.017 c 0,-1.017 0.703,-1.865 1.72,-1.865 0.679,0 1.094,0.272 1.561,0.695 l 0.83,-0.839 C 4.866,-2.645 4.188,-3.051 3.043,-3.051 1.297,-3.051 0,-1.704 0,0"
             style="fill:#0063a3;fill-opacity:1;fill-rule:nonzero;stroke:none"
             id="path3962"
             inkscape:connector-curvature="0" />
        </g>
        <g
           id="g3964"
           transform="translate(532.814,49.623)">
          <path
             d="m 0,0 0,0.017 c 0,1.017 -0.746,1.865 -1.797,1.865 -1.052,0 -1.781,-0.831 -1.781,-1.848 l 0,-0.017 c 0,-1.017 0.746,-1.865 1.797,-1.865 C -0.729,-1.848 0,-1.017 0,0 m -4.943,0 0,0.017 c 0,1.686 1.332,3.068 3.162,3.068 1.832,0 3.146,-1.364 3.146,-3.051 l 0,-0.017 c 0,-1.687 -1.332,-3.068 -3.162,-3.068 -1.831,0 -3.146,1.364 -3.146,3.051"
             style="fill:#0063a3;fill-opacity:1;fill-rule:nonzero;stroke:none"
             id="path3966"
             inkscape:connector-curvature="0" />
        </g>
        <g
           id="g3968"
           transform="translate(535.0388,49.2158)">
          <path
             d="m 0,0 0,3.391 1.305,0 0,-3.356 c 0,-0.967 0.483,-1.467 1.28,-1.467 0.797,0 1.281,0.483 1.281,1.424 l 0,3.399 1.304,0 0,-3.348 C 5.17,-1.755 4.162,-2.636 2.569,-2.636 0.975,-2.636 0,-1.746 0,0"
             style="fill:#0063a3;fill-opacity:1;fill-rule:nonzero;stroke:none"
             id="path3970"
             inkscape:connector-curvature="0" />
        </g>
        <g
           id="g3972"
           transform="translate(541.3322,52.6069)">
          <path
             d="m 0,0 1.204,0 2.78,-3.653 0,3.653 1.289,0 0,-5.934 -1.11,0 -2.874,3.772 0,-3.772 L 0,-5.934 0,0 z"
             style="fill:#0063a3;fill-opacity:1;fill-rule:nonzero;stroke:none"
             id="path3974"
             inkscape:connector-curvature="0" />
        </g>
        <g
           id="g3976"
           transform="translate(547.5571,49.623)">
          <path
             d="m 0,0 0,0.017 c 0,1.686 1.271,3.068 3.094,3.068 1.119,0 1.789,-0.372 2.339,-0.915 L 4.603,1.212 c -0.459,0.416 -0.924,0.67 -1.518,0.67 -1,0 -1.72,-0.831 -1.72,-1.848 l 0,-0.017 c 0,-1.017 0.703,-1.865 1.72,-1.865 0.678,0 1.094,0.272 1.56,0.695 L 5.476,-1.992 C 4.865,-2.645 4.187,-3.051 3.043,-3.051 1.297,-3.051 0,-1.704 0,0"
             style="fill:#0063a3;fill-opacity:1;fill-rule:nonzero;stroke:none"
             id="path3978"
             inkscape:connector-curvature="0" />
        </g>
        <path
           d="m 553.926,52.607 1.305,0 0,-5.934 -1.305,0 0,5.934 z"
           style="fill:#0063a3;fill-opacity:1;fill-rule:nonzero;stroke:none"
           id="path3980"
           inkscape:connector-curvature="0" />
        <g
           id="g3982"
           transform="translate(556.5051,52.6069)">
          <path
             d="m 0,0 1.305,0 0,-4.747 2.959,0 0,-1.187 L 0,-5.934 0,0 z"
             style="fill:#0063a3;fill-opacity:1;fill-rule:nonzero;stroke:none"
             id="path3984"
             inkscape:connector-curvature="0" />
        </g>
        <g
           id="g3986"
           transform="translate(476.2335,42.6165)">
          <path
             d="m 0,0 -1.806,0 0,1.205 4.918,0 0,-1.205 -1.807,0 0,-4.732 L 0,-4.732 0,0 z"
             style="fill:#0096dc;fill-opacity:1;fill-rule:nonzero;stroke:none"
             id="path3988"
             inkscape:connector-curvature="0" />
        </g>
        <g
           id="g3990"
           transform="translate(484.5632,40.8359)">
          <path
             d="m 0,0 0,0.017 c 0,1.017 -0.746,1.866 -1.798,1.866 -1.051,0 -1.781,-0.832 -1.781,-1.849 l 0,-0.017 c 0,-1.018 0.746,-1.866 1.798,-1.866 C -0.729,-1.849 0,-1.018 0,0 m -4.944,0 0,0.017 c 0,1.687 1.331,3.07 3.163,3.07 1.832,0 3.146,-1.366 3.146,-3.053 l 0,-0.017 c 0,-1.688 -1.331,-3.07 -3.163,-3.07 -1.831,0 -3.146,1.365 -3.146,3.053"
             style="fill:#0096dc;fill-opacity:1;fill-rule:nonzero;stroke:none"
             id="path3992"
             inkscape:connector-curvature="0" />
        </g>
        <path
           d="m 486.941,43.821 1.306,0 0,-5.937 -1.306,0 0,5.937 z"
           style="fill:#0096dc;fill-opacity:1;fill-rule:nonzero;stroke:none"
           id="path3994"
           inkscape:connector-curvature="0" />
        <g
           id="g3996"
           transform="translate(491.8551,43.8211)">
          <path
             d="M 0,0 1.408,0 2.967,-2.511 4.529,0 l 1.407,0 0,-5.937 -1.298,0 0,3.876 -1.671,-2.536 -0.034,0 -1.653,2.51 0,-3.85 -1.28,0 L 0,0 z"
             style="fill:#0096dc;fill-opacity:1;fill-rule:nonzero;stroke:none"
             id="path3998"
             inkscape:connector-curvature="0" />
        </g>
        <g
           id="g4000"
           transform="translate(503.6891,40.8359)">
          <path
             d="m 0,0 0,0.017 c 0,1.017 -0.746,1.866 -1.798,1.866 -1.052,0 -1.781,-0.832 -1.781,-1.849 l 0,-0.017 c 0,-1.018 0.746,-1.866 1.798,-1.866 C -0.73,-1.849 0,-1.018 0,0 m -4.944,0 0,0.017 c 0,1.687 1.331,3.07 3.163,3.07 1.831,0 3.146,-1.366 3.146,-3.053 l 0,-0.017 c 0,-1.688 -1.331,-3.07 -3.163,-3.07 -1.832,0 -3.146,1.365 -3.146,3.053"
             style="fill:#0096dc;fill-opacity:1;fill-rule:nonzero;stroke:none"
             id="path4002"
             inkscape:connector-curvature="0" />
        </g>
        <g
           id="g4004"
           transform="translate(509.0348,40.3693)">
          <path
             d="M 0,0 -0.79,1.925 -1.578,0 0,0 z m -1.374,3.494 1.204,0 2.544,-5.979 -1.366,0 -0.543,1.332 -2.509,0 -0.543,-1.332 -1.332,0 2.545,5.979 z"
             style="fill:#0096dc;fill-opacity:1;fill-rule:nonzero;stroke:none"
             id="path4006"
             inkscape:connector-curvature="0" />
        </g>
        <g
           id="g4008"
           transform="translate(512.1169,43.8211)">
          <path
             d="m 0,0 1.204,0 2.782,-3.655 0,3.655 1.288,0 0,-5.937 -1.11,0 -2.875,3.774 0,-3.774 L 0,-5.937 0,0 z"
             style="fill:#0096dc;fill-opacity:1;fill-rule:nonzero;stroke:none"
             id="path4010"
             inkscape:connector-curvature="0" />
        </g>
        <g
           id="g4012"
           transform="translate(522.0156,40.3693)">
          <path
             d="M 0,0 -0.788,1.925 -1.576,0 0,0 z m -1.373,3.494 1.204,0 2.544,-5.979 -1.365,0 -0.542,1.332 -2.511,0 -0.543,-1.332 -1.331,0 2.544,5.979 z"
             style="fill:#0096dc;fill-opacity:1;fill-rule:nonzero;stroke:none"
             id="path4014"
             inkscape:connector-curvature="0" />
        </g>
      </g>
    </g>
  </g>
</svg>
