<svg xmlns="http://www.w3.org/2000/svg" viewBox="0 0 399 290" width="399" height="290"><defs></defs><g transform="matrix(1,0,0,1,-0.269156842,-54.702523062)">
<g>
	<g>
		<g transform="matrix(1.228714205,0,0,1.228714205,338.145001736,-45.140173853)">
			<g>
				<g>
					<g>
						<g>
							<path d="M-234.023926,255.986023C-225.576928,264.061724 -218.893589,270.433438 -204.419652,269.100749 C-188.785415,267.642084 -179.430065,260.328867 -170.392972,253.23445 C-161.263055,246.07373 -151.814882,238.667689 -137.142034,238.661059 C-129.059704,238.661059 -120.135327,243.076836 -110.70704,247.737935 C-101.119637,252.471966 -91.220605,257.378385 -82.667529,257.378385 C-78.013051,257.378385 -69.884309,252.723917 -62.716963,248.613134 C-54.336269,243.819429 -45.670464,238.859968 -38.092038,238.097484 C-24.141894,236.705122 -16.444112,241.313177 -10.244801,245.019513 C-6.087613,247.512504 -2.792345,249.475072 2.021262,249.793326 C8.930029,250.224295 13.372316,248.414225 19.511961,245.907973 C26.593123,243.003903 35.185996,239.489846 50.077631,238.402478 C50.077631,238.402478 50.077631,225.486661 50.077631,225.486661 C45.69501,227.243689 40.264796,228.87474 33.661031,228.589639 C25.737829,228.244863 21.461285,226.056866 18.006901,224.299839 C14.917186,222.708566 12.682764,221.568155 7.544275,221.568155 C2.32624,221.568155 -2.162459,223.716371 -6.923027,225.983932 C-12.379747,228.589639 -18.015514,231.2948 -24.97732,230.923503 C-28.637244,230.731225 -32.946934,229.391904 -37.939549,227.847046 C-43.91344,226.010454 -50.676345,223.908651 -56.312099,223.908651 C-60.303533,223.908651 -64.759098,226.302185 -69.904201,229.08028 C-77.880455,233.363453 -87.812633,238.707471 -100.536176,236.705122 C-106.874735,235.730468 -112.304949,232.779986 -117.589288,229.928958 C-123.795251,226.560767 -130.233267,223.073231 -138.93885,222.125101 C-151.874553,220.719479 -162.947148,223.630177 -174.682776,226.719895 C-186.4184,229.802984 -198.558471,232.978895 -214.000431,232.693792 C-226.843315,232.448472 -235.714651,227.197277 -245.103151,221.64109 C-252.999834,216.993251 -261.62585,211.894552 -274.979266,208.897658 C-274.979266,208.897658 -274.979266,238.110744 -274.979266,238.110744 C-273.69962,238.084223 -273.089632,238.077593 -272.473012,238.077593 C-252.781034,238.077593 -242.822329,247.592068 -234.023926,255.986023 " fill="#0063a3"/>
						</g>
					</g>
					<g>
						<g>
							<path d="M23.513428,255.661804C16.922913,258.366965 10.690435,260.899738 1.335087,260.303011 C-6.031171,259.838891 -11.156392,256.775694 -15.671622,254.070533 C-21.519543,250.569737 -26.571829,247.546322 -37.05433,248.593909 C-42.371828,249.124332 -50.036451,253.520218 -57.455749,257.770238 C-66.579039,262.975021 -75.198419,267.921222 -82.670762,267.921222 C-93.690319,267.921222 -104.729756,262.457858 -115.39791,257.193403 C-123.692407,253.082619 -131.536051,249.217156 -137.145286,249.217156 C-148.16483,249.217156 -155.09349,254.640739 -163.871999,261.522986 C-173.645061,269.187608 -184.704391,277.853405 -203.434983,279.590543 C-222.71589,281.387354 -232.601644,271.939181 -241.327127,263.604899 C-249.402817,255.900495 -257.014415,248.6138 -272.476245,248.6138 C-273.099505,248.6138 -273.709486,248.646951 -274.982512,248.673472 C-274.982512,248.673472 -274.982512,317.76116 -274.982512,317.76116 C-274.982512,317.76116 50.081025,317.76116 50.081025,317.76116 C50.081025,317.76116 50.081025,248.971836 50.081025,248.971836 C37.364116,249.999531 30.070791,252.989795 23.513428,255.661804 " fill="#004676"/>
						</g>
					</g>
					<g>
						<g>
							<path d="M-241.327881,263.602264C-232.602411,271.936547 -222.71664,281.384718 -203.435737,279.587909 C-184.705151,277.857402 -173.645816,269.184974 -163.866133,261.520351 C-155.094251,254.644735 -148.165591,249.214521 -137.146034,249.214521 C-131.536805,249.214521 -123.693161,253.086615 -115.398664,257.190768 C-104.723883,262.455223 -93.691073,267.925218 -82.66489,267.925218 C-75.19918,267.925218 -66.579787,262.979017 -57.456503,257.767604 C-50.037205,253.524214 -42.372582,249.128327 -37.055084,248.591274 C-26.565963,247.543687 -21.520297,250.567102 -15.672376,254.067899 C-11.157146,256.773059 -6.031935,259.836256 1.334324,260.300377 C10.689668,260.903734 16.922162,258.36433 23.512673,255.65917 C30.070026,252.98716 37.363367,249.996896 50.08027,248.97583 C50.08027,248.97583 50.08027,238.407139 50.08027,238.407139 C35.188636,239.487876 26.589135,243.008565 19.514601,245.906004 C13.374955,248.412256 8.932643,250.222327 2.023876,249.791358 C-2.796332,249.473103 -6.084974,247.510535 -10.242162,245.024174 C-16.441498,241.311209 -24.145894,236.709781 -38.096038,238.102145 C-45.674464,238.86463 -54.340269,243.817461 -62.714336,248.617795 C-69.881682,252.721948 -78.010424,257.376416 -82.66489,257.376416 C-91.217978,257.376416 -101.123637,252.469997 -110.704413,247.735966 C-120.132701,243.081497 -129.06371,238.659089 -137.146034,238.659089 C-151.818882,238.672351 -161.267055,246.071761 -170.390339,253.232481 C-179.434065,260.326898 -188.782782,267.640115 -204.417022,269.09878 C-218.897589,270.4381 -225.580927,264.059755 -234.021294,255.984054 C-242.819697,247.590099 -252.785033,238.075625 -272.477012,238.075625 C-273.087,238.075625 -273.696987,238.082254 -274.983266,238.108775 C-274.983266,238.108775 -274.983266,248.670837 -274.983266,248.670837 C-273.710246,248.644316 -273.100259,248.617795 -272.477012,248.617795 C-257.015161,248.617795 -249.403582,255.90449 -241.327881,263.602264 " fill="#ffffff"/>
						</g>
					</g>
					<g>
						<g>
							<path d="M-219.303955,103.90033C-195.487931,103.90033 -184.574464,118.540023 -171.366913,138.994489 C-135.138973,195.100055 -62.736138,189.928426 50.118121,183.523556 C50.118121,183.523556 50.118121,81.257868 50.118121,81.257868 C50.118121,81.257868 -274.945402,81.257868 -274.945402,81.257868 C-274.945402,81.257868 -274.945402,150.72348 -274.945402,150.72348 C-271.537427,145.830322 -241.720987,103.90033 -219.303955,103.90033 " fill="#0096dc"/>
						</g>
					</g>
					<g>
						<g>
							<path d="M-171.366943,138.995087C-184.574493,118.533993 -195.487961,103.900927 -219.303985,103.900927 C-241.721017,103.900927 -271.537457,145.830922 -274.945429,150.724081 C-274.945429,150.724081 -274.945429,168.645772 -274.945429,168.645772 C-269.694236,159.913671 -241.396134,114.562445 -219.867561,114.562445 C-196.058166,114.562445 -187.153679,131.469701 -174.615789,152.348503 C-144.607069,202.33431 -63.631256,200.544127 50.118094,194.125997 C50.118094,194.125997 50.118094,183.524157 50.118094,183.524157 C-62.736165,189.929023 -135.139003,195.100653 -171.366943,138.995087 " fill="#ffffff"/>
						</g>
					</g>
					<g>
						<g>
							<path d="M-274.955322,197.330444C-259.142066,200.605811 -248.745761,206.752095 -239.934097,211.950247 C-231.188738,217.128509 -224.279967,221.212771 -214.44061,221.385159 C-200.603182,221.657001 -189.23885,218.686628 -178.252451,215.79582 C-166.052712,212.586757 -153.42862,209.271608 -138.39111,210.90266 C-127.437858,212.096114 -119.667157,216.306352 -112.811428,220.012688 C-107.089477,223.122297 -105.345719,224.740088 -99.471278,225.555615 C-90.520376,226.815372 -83.492253,223.162078 -76.033169,219.144119 C-70.065905,215.948317 -63.899728,212.633169 -57.017492,212.633169 C-49.651233,212.633169 -42.006502,214.986924 -35.25685,217.068836 C-31.179232,218.328593 -27.313768,219.541936 -25.085973,219.654652 C-21.041488,219.853561 -17.122986,217.983817 -12.574597,215.80908 C-7.144408,213.216633 -0.984857,210.279413 6.819014,210.279413 C14.715684,210.279413 18.846366,212.401108 22.486397,214.26422 C25.576113,215.828971 28.016062,217.068836 33.426396,217.307527 C39.51963,217.579368 44.207254,215.477565 48.702579,213.448694 C48.928012,213.355871 49.126938,213.243156 50.108214,213.170222 C50.108214,213.170222 50.108214,194.128011 50.108214,194.128011 C-63.634523,200.539508 -144.610326,202.329688 -174.61242,152.350515 C-187.156942,131.465081 -196.0548,114.564458 -219.864191,114.564458 C-241.392764,114.564458 -269.697497,159.915682 -274.948692,168.641152 C-274.948692,168.641152 -274.955322,197.330444 -274.955322,197.330444 C-274.955322,197.330444 -274.955322,197.330444 -274.955322,197.330444 Z" fill="#65b32e"/>
						</g>
					</g>
					<g>
						<g>
							<path d="M-274.947266,200.512329C-274.947266,200.512329 -274.953896,197.329787 -274.953896,197.329787 C-259.140639,200.605153 -248.744336,206.751438 -239.93267,211.95622 C-231.187311,217.127852 -224.278541,221.218744 -214.43918,221.391131 C-200.601752,221.656343 -189.237426,218.685971 -178.251028,215.795162 C-166.051282,212.586098 -153.427202,209.27095 -138.38968,210.908633 C-127.43644,212.095456 -119.58617,216.179719 -112.809998,220.01203 C-106.610675,223.526087 -104.939835,224.812365 -99.469848,225.554958 C-90.50568,226.794823 -83.490835,223.16142 -76.031752,219.143461 C-70.064488,215.947659 -63.89831,212.63251 -57.016062,212.63251 C-49.649803,212.63251 -42.005072,214.986266 -35.25542,217.068179 C-31.177802,218.327935 -27.312338,219.541279 -25.084543,219.653995 C-21.040084,219.852904 -17.121556,217.98316 -12.573193,215.815053 C-7.142978,213.215977 -0.983427,210.278756 6.820444,210.278756 C14.717114,210.278756 18.847796,212.40045 22.487827,214.263563 C25.577543,215.828313 28.017492,217.068179 33.427801,217.306869 C39.52106,217.578711 44.208684,215.476907 48.704009,213.448037 C48.922815,213.355213 49.128343,213.249128 50.103017,213.169565 C50.103017,213.169565 50.103017,215.947659 50.103017,215.947659 C50.103017,215.947659 50.103017,219.163352 50.103017,219.163352 C50.103017,219.163352 50.083112,221.563519 50.083112,221.563519 C50.083112,221.563519 50.083112,225.488655 50.083112,225.488655 C45.693864,227.245684 40.26365,228.876736 33.65986,228.591635 C25.736658,228.240229 21.460139,226.05223 18.012382,224.301832 C14.916015,222.710561 12.681619,221.563519 7.543129,221.563519 C2.325094,221.563519 -2.163629,223.711736 -6.924172,225.985927 C-12.380893,228.591635 -18.01666,231.296795 -24.978466,230.918867 C-28.631751,230.73322 -32.94808,229.393899 -37.940707,227.849041 C-43.907959,226.012448 -50.677491,223.910645 -56.313258,223.910645 C-60.304678,223.910645 -64.760243,226.304182 -69.90536,229.075646 C-77.8816,233.365446 -87.807152,238.709467 -100.537321,236.707117 C-106.869254,235.732461 -112.306095,232.781982 -117.590447,229.930952 C-123.796397,226.562762 -130.234419,223.075228 -138.939996,222.127095 C-151.875705,220.721473 -162.9483,223.632172 -174.677295,226.715259 C-186.419549,229.804979 -198.559623,232.980889 -214.00158,232.695788 C-226.844466,232.443836 -235.715804,227.199272 -245.104303,221.643083 C-253.000985,216.995246 -261.627,211.896548 -274.980417,208.899654 C-274.980417,208.899654 -274.980417,204.251816 -274.980417,204.251816 C-274.980417,204.251816 -274.947266,200.512329 -274.947266,200.512329 C-274.947266,200.512329 -274.947266,200.512329 -274.947266,200.512329 Z" fill="#ffffff"/>
						</g>
					</g>
					<g>
						<path d="M50.122186,183.527506C50.122186,183.527506 50.108831,183.527506 50.108831,183.527506 C50.108831,183.527506 50.108831,194.129344 50.108831,194.129344 C50.108831,194.129344 50.122186,194.129344 50.122186,194.129344 C50.122186,194.129344 50.122186,183.527506 50.122186,183.527506 C50.122186,183.527506 50.122186,183.527506 50.122186,183.527506 Z" fill="#ffffff"/>
					</g>
					<g>
						<g>
							<path d="M-171.366943,138.995087C-184.574493,118.533993 -195.487961,103.900927 -219.303985,103.900927 C-241.721017,103.900927 -271.537457,145.830922 -274.945429,150.724081 C-274.945429,150.724081 -274.945429,168.645772 -274.945429,168.645772 C-269.694236,159.913671 -241.396134,114.562445 -219.867561,114.562445 C-196.058166,114.562445 -187.153679,131.469701 -174.615789,152.348503 C-144.607069,202.33431 -63.637896,200.544127 50.104841,194.125997 C50.104841,194.125997 50.104841,183.524157 50.104841,183.524157 C-62.742804,189.929023 -135.139003,195.100653 -171.366943,138.995087 " fill="#ffffff"/>
						</g>
					</g>
					<g>
						<g>
							<path d="M-45.928955,124.18634C-44.085733,124.073625 -40.545155,124.637201 -37.939448,126.758895 C-36.288504,128.111476 -35.347003,129.848613 -35.154724,131.930526 C-34.571257,138.189526 -37.176964,142.054988 -42.892279,143.42746 C-49.628661,145.045252 -54.31628,142.764431 -56.815901,136.644667 C-57.618167,134.682099 -57.432519,132.67975 -56.265587,130.67077 C-54.442256,127.52801 -50.364623,124.882521 -46.585354,124.371989 C-46.346664,124.345467 -46.127864,124.279164 -45.928955,124.18634 M-53.500753,117.602456C-53.500753,117.602456 -53.374778,117.569305 -53.374778,117.569305 C-54.230086,117.781474 -55.078764,118.093098 -55.914181,118.530698 C-66.323746,123.848195 -69.168144,133.462125 -66.582328,139.800688 C-61.609606,151.973912 -49.38334,154.86472 -42.69337,152.981716 C-35.850905,151.058931 -30.59308,147.127166 -27.894549,141.902491 C-25.520903,137.314327 -25.295473,131.996829 -27.24478,126.553356 C-29.644947,119.863387 -40.100925,113.027552 -53.500753,117.602456 " fill="#fbba07"/>
						</g>
					</g>
					<g>
						<g>
							<path d="M-25.703857,94.588043C-27.394583,93.40785 -29.609102,93.83882 -29.861053,93.891862 C-33.36848,94.641086 -36.458198,104.235125 -37.40633,108.763617 C-37.678172,110.102936 -36.968731,111.356063 -35.549847,112.032353 C-33.985097,112.788206 -31.737427,112.801467 -30.68984,111.528451 C-26.472972,106.416492 -23.708138,100.429334 -24.119217,97.279943 C-24.278344,96.139533 -24.828658,95.204661 -25.703857,94.588043 " fill="#fbba07"/>
						</g>
					</g>
					<g>
						<g>
							<path d="M-55.518311,111.211517C-53.960191,110.614791 -52.488265,109.169386 -52.687174,107.564854 C-53.502701,101.113576 -55.982431,95.026964 -58.601398,93.090917 C-59.576052,92.381477 -60.676681,92.103004 -61.77068,92.301912 C-63.773029,92.666579 -64.979744,94.423607 -65.112349,94.622516 C-67.220783,97.798428 -61.565141,107.2466 -59.416925,110.296536 C-58.588138,111.470099 -57.096321,111.821505 -55.518311,111.211517 " fill="#fbba07"/>
						</g>
					</g>
					<g>
						<g>
							<path d="M-75.19043,140.563202C-81.940071,141.332316 -88.298525,143.692702 -90.327396,146.165802 C-91.282159,147.345995 -91.321941,148.486406 -91.195965,149.228999 C-90.844559,151.224719 -88.954924,152.411541 -88.736125,152.544147 C-85.71271,154.360849 -76.463447,149.679859 -72.452117,147.127195 C-71.265294,146.371341 -70.854216,144.978979 -71.38464,143.500423 C-71.948215,141.909152 -73.526225,140.364293 -75.19043,140.563202 " fill="#fbba07"/>
						</g>
					</g>
					<g>
						<g>
							<path d="M-37.661621,158.43515C-39.219741,159.038507 -40.691666,160.483912 -40.492757,162.081813 C-39.677231,168.533091 -37.1975,174.626333 -34.571903,176.55575 C-33.61051,177.271822 -32.516511,177.543664 -31.422512,177.351385 C-29.897544,177.072914 -28.67094,175.932501 -28.074213,175.030782 C-25.959148,171.854869 -31.614791,162.413328 -33.763007,159.350131 C-34.591794,158.183199 -36.083611,157.825163 -37.661621,158.43515 " fill="#fbba07"/>
						</g>
					</g>
					<g>
						<g>
							<path d="M-19.253418,143.503693C-20.698823,143.22522 -22.011621,144.007595 -22.694542,145.539194 C-23.344311,146.997859 -23.32442,149.079772 -22.018251,150.061056 C-16.674233,154.052494 -10.435124,156.671461 -7.179649,156.286904 C-5.614899,156.094625 -4.75296,155.292359 -4.308731,154.64259 C-3.446791,153.409355 -3.42027,151.745151 -3.665591,150.704194 C-4.53416,147.057531 -15.480779,144.213134 -19.253418,143.503693 " fill="#fbba07"/>
						</g>
					</g>
					<g>
						<g>
							<path d="M-70.337891,118.886078C-75.582455,114.781924 -81.755261,112.017091 -85.023996,112.328715 C-86.595376,112.494472 -87.477207,113.283477 -87.941327,113.919986 C-88.836417,115.146591 -88.882829,116.804165 -88.664029,117.831861 C-87.888285,121.498415 -77.007969,124.581503 -73.248591,125.377138 C-71.809816,125.688762 -70.470497,124.932908 -69.754425,123.41457 C-69.078134,121.962535 -69.051613,119.887253 -70.337891,118.886078 " fill="#fbba07"/>
						</g>
					</g>
					<g>
						<g>
							<path d="M-57.726318,157.196594C-59.277808,156.407589 -61.518848,156.341286 -62.592956,157.594412 C-66.92917,162.606916 -69.83987,168.534401 -69.508354,171.697052 C-69.375749,172.844093 -68.845325,173.785596 -67.976756,174.422104 C-66.319182,175.642079 -64.098033,175.257521 -63.846082,175.211109 C-60.318764,174.534819 -57.003616,165.013714 -55.956029,160.511742 C-55.637775,159.185683 -56.320696,157.912666 -57.726318,157.196594 " fill="#fbba07"/>
						</g>
					</g>
					<g>
						<g>
							<path d="M-1.197754,121.231232C-1.502748,119.235513 -3.365861,117.995647 -3.57803,117.863041 C-6.555033,115.986667 -15.917012,120.455487 -19.988014,122.921957 C-21.188098,123.65129 -21.632327,125.023761 -21.141684,126.515578 C-20.617891,128.12674 -19.066402,129.69812 -17.402198,129.552253 C-10.632665,128.922375 -4.214539,126.701226 -2.139256,124.274538 C-1.151342,123.114236 -1.078409,121.980455 -1.197754,121.231232 " fill="#fbba07"/>
						</g>
					</g>
				</g>
			</g>
		</g>
	</g>
</g></g></svg>